<svg width="458" height="433" viewBox="0 0 458 433" fill="none" xmlns="http://www.w3.org/2000/svg">
<g clip-path="url(#clip0_37_28)">
<mask id="mask0_37_28" style="mask-type:alpha" maskUnits="userSpaceOnUse" x="-254" y="2" width="626" height="568">
<rect x="371.344" y="180.397" width="618.22" height="229.364" transform="rotate(140.939 371.344 180.397)" fill="#D9D9D9"/>
</mask>
<g mask="url(#mask0_37_28)">
<mask id="mask1_37_28" style="mask-type:alpha" maskUnits="userSpaceOnUse" x="-129" y="111" width="500" height="459">
<rect x="356.624" y="280.901" width="443.601" height="198.813" rx="99.4066" transform="rotate(141.713 356.624 280.901)" stroke="#7ECC44" stroke-width="107.171"/>
</mask>
<g mask="url(#mask1_37_28)">
<path d="M172.106 515.5C217.281 437.021 201.321 392.883 134.949 366.651L256.079 120.779C322.45 147.011 507.765 196.922 462.589 275.4L172.106 515.5Z" fill="#DE5376"/>
<path d="M359.89 109.743C270.261 147.882 236.995 191.537 265.65 253.188L55.6769 351.051C27.0221 289.4 -91.0952 220.841 -1.46597 182.703L147.016 65.3696L359.89 109.743Z" fill="#DE5376"/>
<path d="M-172.315 629.676C-97.9261 566.427 -128.266 392.366 -187.339 341.661L-91.6753 367.1L41.9491 413.465C101.022 464.169 101.805 514.752 27.4164 578.001L-172.315 629.676Z" fill="#9466FF"/>
<path d="M37.5019 205.211C72.504 223.525 67.3187 279.43 40.8881 338.596L-3.08483 455.476C-33.7279 433.22 -121.112 407.07 -127.293 455.476L-169.694 360.41L37.5019 205.211Z" fill="#63C7EB"/>
</g>
<path d="M124.731 542.731L123.17 543.947L123.131 543.977C53.2963 597.682 -46.9419 585.394 -101.686 516.045C-156.43 446.695 -145.11 346.343 -76.6583 290.886L-76.6192 290.855L-75.0747 289.619L117.105 137.913C187 82.7383 288.389 94.6714 343.564 164.567C398.739 234.462 386.806 335.851 316.911 391.026L124.731 542.731ZM245.078 300.029C264.717 284.526 268.07 256.038 252.567 236.399C237.065 216.76 208.576 213.407 188.937 228.91L-3.20001 380.582C-22.8386 396.085 -26.191 424.573 -10.6883 444.212C4.81444 463.85 33.3021 467.204 52.9409 451.701L245.078 300.029Z" stroke="white" stroke-width="16.4879"/>
</g>
<mask id="mask2_37_28" style="mask-type:alpha" maskUnits="userSpaceOnUse" x="120" y="-190" width="394" height="536">
<rect x="488.092" y="-94.6277" width="443.601" height="198.813" rx="99.4066" transform="rotate(110.678 488.092 -94.6277)" stroke="#7ECC44" stroke-width="107.171"/>
</mask>
<g mask="url(#mask2_37_28)">
<path d="M223.937 -157.286C231.732 -69.8636 272.089 -49.3608 345.542 -76.5931L329.443 109.272C414.545 109.15 517.996 119.853 497.935 249.593L163.956 434.365L98.0158 183.996L223.937 -157.286Z" fill="#9466FF"/>
<path d="M418.96 245.19C425.193 186.031 385.724 101.067 352.46 116.482L341.257 -124.417C378.472 -178.018 560.363 -184.035 547.836 -96.9822L434.701 350.822L418.96 245.19Z" fill="#63C7EB"/>
<path d="M517.323 -36.6973C508.606 -114.137 382.384 -116.826 382.434 -81.4465L257.274 85.8153C218.979 85.8699 192.153 16.1053 192.09 -27.8799L225.453 -163.217C271.189 -199.236 420.566 -222.311 486.526 -153.039L580.234 -21.3604L517.323 -36.6973Z" fill="#DE5376"/>
</g>
<path d="M424.377 249.278L423.666 251.125L423.648 251.171C391.498 333.192 299.272 374.341 216.611 343.141C133.95 311.942 91.9133 220.118 121.975 137.309L121.993 137.263L122.679 135.407L209.138 -93.6618C240.582 -176.973 333.611 -219.02 416.923 -187.575C500.234 -156.13 542.281 -63.1017 510.836 20.2099L424.377 249.278ZM402.372 -20.7283C411.207 -44.1367 399.393 -70.2759 375.984 -79.1111C352.576 -87.9463 326.437 -76.1321 317.602 -52.7237L231.162 176.295C222.327 199.703 234.141 225.841 257.55 234.677C280.958 243.512 307.097 231.698 315.932 208.29L402.372 -20.7283Z" stroke="white" stroke-width="16.4879"/>
<mask id="mask3_37_28" style="mask-type:alpha" maskUnits="userSpaceOnUse" x="-90" y="95" width="647" height="628">
<rect x="556.798" y="275.561" width="654.625" height="246.548" transform="rotate(136.94 556.798 275.561)" fill="#D9D9D9"/>
</mask>
<g mask="url(#mask3_37_28)">
<mask id="mask4_37_28" style="mask-type:alpha" maskUnits="userSpaceOnUse" x="-129" y="111" width="500" height="459">
<rect x="356.627" y="280.902" width="443.601" height="198.813" rx="99.4066" transform="rotate(141.713 356.627 280.902)" stroke="#7ECC44" stroke-width="107.171"/>
</mask>
<g mask="url(#mask4_37_28)">
<path d="M172.108 515.502C140.127 503.474 106.931 474.181 134.951 366.653L325.257 152.479C391.629 178.711 422.877 267.003 377.701 345.482L172.108 515.502Z" fill="#DE5376"/>
<path d="M359.892 109.745C270.263 147.884 249.616 194.165 278.271 255.816L87.393 250.598C58.7382 188.947 79.3852 142.667 169.014 104.528L359.892 109.745Z" fill="#DE5376"/>
<path d="M126.906 112.244C88.514 191.172 112.524 229.546 189.503 244.08L32.0026 365.616C-44.9755 351.082 -68.986 312.708 -30.5943 233.781L126.906 112.244Z" fill="#DE5376"/>
<path d="M-111.709 655.923C-57.3831 600.256 -54.4677 559.838 -90.7405 523.289L54.1083 440.83L210.326 328.49C162.189 381.595 163.872 492.467 220.939 475.778L139.816 535.373L-111.709 655.923Z" fill="#9466FF"/>
</g>
<path d="M124.731 542.731L123.17 543.947L123.131 543.977C53.2963 597.682 -46.9419 585.394 -101.686 516.045C-156.43 446.695 -145.11 346.343 -76.6583 290.886L-76.6192 290.855L-75.0747 289.619L117.105 137.913C187 82.7383 288.389 94.6714 343.564 164.567C398.739 234.462 386.806 335.851 316.911 391.026L124.731 542.731ZM245.078 300.029C264.717 284.526 268.07 256.038 252.567 236.399C237.065 216.76 208.576 213.407 188.937 228.91L-3.20001 380.582C-22.8386 396.085 -26.191 424.573 -10.6883 444.212C4.81444 463.85 33.3021 467.204 52.9409 451.701L245.078 300.029Z" stroke="white" stroke-width="16.4879"/>
</g>
</g>
<defs>
<clipPath id="clip0_37_28">
<rect width="458" height="432.254" fill="white"/>
</clipPath>
</defs>
</svg>
