<svg width="432" height="432" viewBox="0 0 432 432" fill="none" xmlns="http://www.w3.org/2000/svg">
<g clip-path="url(#clip0_26_2)">
<mask id="mask0_26_2" style="mask-type:alpha" maskUnits="userSpaceOnUse" x="-21" y="116" width="328" height="297">
<rect x="306.36" y="209.258" width="323.268" height="119.935" transform="rotate(140.939 306.36 209.258)" fill="#D9D9D9"/>
</mask>
<g mask="url(#mask0_26_2)">
<mask id="mask1_26_2" style="mask-type:alpha" maskUnits="userSpaceOnUse" x="45" y="173" width="261" height="240">
<rect x="301.501" y="262.146" width="236" height="108" rx="54" transform="rotate(141.713 301.501 262.146)" stroke="#7ECC44" stroke-width="52"/>
</mask>
<g mask="url(#mask1_26_2)">
<path d="M202.179 384.485C225.801 343.448 217.455 320.368 182.749 306.651L246.088 178.084C280.794 191.801 377.696 217.899 354.073 258.936L202.179 384.485Z" fill="#DE5376"/>
<path d="M300.371 172.314C253.504 192.256 236.109 215.084 251.093 247.321L141.298 298.494C126.314 266.256 64.5501 230.407 111.417 210.464L189.059 149.11L300.371 172.314Z" fill="#DE5376"/>
<path d="M22.08 444.187C60.9782 411.115 45.1132 320.098 14.2237 293.584L64.2467 306.886L134.119 331.13C165.009 357.644 165.418 384.094 126.52 417.167L22.08 444.187Z" fill="#9466FF"/>
<path d="M131.794 222.234C150.096 231.81 147.385 261.043 133.564 291.981L110.571 353.098C94.5475 341.46 48.8542 327.786 45.6221 353.098L23.4508 303.388L131.794 222.234Z" fill="#63C7EB"/>
</g>
<path d="M177.215 398.479L176.399 399.114L176.38 399.129C139.998 427.108 87.7763 420.706 59.256 384.577C30.7357 348.447 36.6331 296.166 72.2944 267.275L72.3136 267.26L73.1211 266.613L173.611 187.288C210.024 158.543 262.846 164.76 291.59 201.173C320.335 237.587 314.118 290.408 277.704 319.153L177.215 398.479ZM241.009 271.668C250.985 263.375 252.58 248.591 244.495 238.35C236.283 227.946 221.191 226.17 210.787 234.382L110.318 313.692L109.837 314.082C99.8612 322.375 98.2663 337.159 106.351 347.4C114.435 357.642 129.186 359.523 139.568 351.745L140.059 351.368L240.528 272.058L241.009 271.668Z" stroke="white" stroke-width="8"/>
</g>
<mask id="mask2_26_2" style="mask-type:alpha" maskUnits="userSpaceOnUse" x="175" y="15" width="206" height="281">
<rect x="370.011" y="64.2716" width="236" height="108" rx="54" transform="rotate(110.678 370.011 64.2716)" stroke="#7ECC44" stroke-width="52"/>
</mask>
<g mask="url(#mask2_26_2)">
<path d="M229.281 32.6839C233.357 78.3972 254.46 89.1182 292.868 74.8784L284.45 172.067C328.95 172.004 383.045 177.6 372.555 245.442L197.916 342.06L163.436 211.141L229.281 32.6839Z" fill="#9466FF"/>
<path d="M331.259 243.14C334.518 212.205 313.879 167.777 296.486 175.838L290.627 49.871C310.087 21.8432 405.199 18.6969 398.648 64.2169L339.489 298.374L331.259 243.14Z" fill="#63C7EB"/>
<path d="M382.693 95.7397C378.135 55.2461 312.133 53.8403 312.159 72.3403L246.713 159.802C226.688 159.83 212.661 123.35 212.628 100.35L230.074 29.5823C253.989 10.748 332.098 -1.31837 366.589 34.9043L415.589 103.759L382.693 95.7397Z" fill="#DE5376"/>
</g>
<path d="M333.801 245.165L333.429 246.131L333.421 246.153C316.671 288.884 268.624 310.321 225.56 294.067C182.495 277.813 160.595 229.975 176.257 186.834L176.265 186.811L176.624 185.841L221.833 66.0625C238.215 22.6593 286.68 0.754163 330.083 17.1361C373.487 33.518 395.392 81.9835 379.01 125.387L333.801 245.165ZM323.086 103.618C327.359 91.3683 321.103 77.8782 308.896 73.2708C296.495 68.5902 282.648 74.8488 277.967 87.2497L232.768 207.004L232.557 207.586C228.284 219.835 234.54 233.325 246.747 237.932C258.954 242.54 272.563 236.547 277.45 224.53L277.676 223.953L322.875 104.2L323.086 103.618Z" stroke="white" stroke-width="8"/>
<mask id="mask3_26_2" style="mask-type:alpha" maskUnits="userSpaceOnUse" x="65" y="164" width="339" height="329">
<rect x="403.335" y="259.02" width="342.305" height="128.921" transform="rotate(136.94 403.335 259.02)" fill="#D9D9D9"/>
</mask>
<g mask="url(#mask3_26_2)">
<mask id="mask4_26_2" style="mask-type:alpha" maskUnits="userSpaceOnUse" x="45" y="173" width="261" height="240">
<rect x="301.502" y="262.147" width="236" height="108" rx="54" transform="rotate(141.713 301.502 262.147)" stroke="#7ECC44" stroke-width="52"/>
</mask>
<g mask="url(#mask4_26_2)">
<path d="M202.179 384.486C185.457 378.196 168.098 362.879 182.75 306.652L282.262 194.66C316.967 208.377 333.307 254.545 309.685 295.582L202.179 384.486Z" fill="#DE5376"/>
<path d="M300.372 172.315C253.505 192.257 242.708 216.458 257.692 248.695L157.881 245.967C142.898 213.73 153.694 189.529 200.561 169.587L300.372 172.315Z" fill="#DE5376"/>
<path d="M178.543 173.622C158.468 214.893 171.023 234.959 211.275 242.559L128.918 306.11C88.6662 298.51 76.1111 278.444 96.1861 237.173L178.543 173.622Z" fill="#DE5376"/>
<path d="M53.7708 457.912C82.1779 428.804 83.7023 407.669 64.7352 388.558L140.477 345.44L222.164 286.697C196.993 314.466 197.873 372.441 227.713 363.714L185.294 394.876L53.7708 457.912Z" fill="#9466FF"/>
</g>
<path d="M177.215 398.479L176.399 399.114L176.38 399.129C139.998 427.108 87.7763 420.706 59.256 384.577C30.7357 348.447 36.6331 296.166 72.2944 267.275L72.3136 267.26L73.1211 266.613L173.611 187.288C210.024 158.543 262.846 164.76 291.59 201.173C320.335 237.587 314.118 290.408 277.704 319.153L177.215 398.479ZM241.009 271.668C250.985 263.375 252.58 248.591 244.495 238.35C236.283 227.946 221.191 226.17 210.787 234.382L110.318 313.692L109.837 314.082C99.8612 322.375 98.2663 337.159 106.351 347.4C114.435 357.642 129.186 359.523 139.568 351.745L140.059 351.368L240.528 272.058L241.009 271.668Z" stroke="white" stroke-width="8"/>
</g>
</g>
<defs>
<clipPath id="clip0_26_2">
<rect width="432" height="432" fill="white"/>
</clipPath>
</defs>
</svg>
