<svg width="1225" height="484" viewBox="0 0 1225 484" fill="none" xmlns="http://www.w3.org/2000/svg">
<g clip-path="url(#clip0_25_7)">
<rect width="1225" height="484" fill="white"/>
<mask id="mask0_25_7" style="mask-type:alpha" maskUnits="userSpaceOnUse" x="68" y="135" width="327" height="297">
<rect x="394.97" y="228.258" width="323.268" height="119.935" transform="rotate(140.939 394.97 228.258)" fill="#D9D9D9"/>
</mask>
<g mask="url(#mask0_25_7)">
<mask id="mask1_25_7" style="mask-type:alpha" maskUnits="userSpaceOnUse" x="133" y="192" width="262" height="240">
<rect x="390.11" y="281.146" width="236" height="108" rx="54" transform="rotate(141.713 390.11 281.146)" stroke="#7ECC44" stroke-width="52"/>
</mask>
<g mask="url(#mask1_25_7)">
<path d="M290.787 403.485C314.41 362.448 306.064 339.368 271.358 325.651L334.697 197.084C369.403 210.801 466.304 236.899 442.682 277.936L290.787 403.485Z" fill="#DE5376"/>
<path d="M388.98 191.314C342.113 211.256 324.718 234.084 339.702 266.321L229.906 317.494C214.923 285.256 153.159 249.407 200.026 229.464L277.668 168.11L388.98 191.314Z" fill="#DE5376"/>
<path d="M110.689 463.187C149.587 430.115 133.722 339.098 102.833 312.584L152.856 325.886L222.728 350.13C253.618 376.644 254.027 403.094 215.129 436.167L110.689 463.187Z" fill="#9466FF"/>
<path d="M220.403 241.234C238.705 250.81 235.994 280.043 222.173 310.981L199.18 372.098C183.156 360.46 137.463 346.786 134.231 372.098L112.06 322.388L220.403 241.234Z" fill="#63C7EB"/>
</g>
</g>
<mask id="mask2_25_7" style="mask-type:alpha" maskUnits="userSpaceOnUse" x="263" y="34" width="207" height="281">
<rect x="458.62" y="83.2716" width="236" height="108" rx="54" transform="rotate(110.678 458.62 83.2716)" stroke="#7ECC44" stroke-width="52"/>
</mask>
<g mask="url(#mask2_25_7)">
<path d="M317.89 51.6839C321.966 97.3972 343.069 108.118 381.477 93.8784L373.059 191.067C417.559 191.004 471.654 196.6 461.164 264.442L286.525 361.06L252.045 230.141L317.89 51.6839Z" fill="#9466FF"/>
<path d="M419.867 262.14C423.127 231.205 402.488 186.777 385.095 194.838L379.236 68.871C398.696 40.8432 493.808 37.6969 487.257 83.2169L428.098 317.374L419.867 262.14Z" fill="#63C7EB"/>
<path d="M471.302 114.74C466.744 74.2461 400.742 72.8403 400.768 91.3403L335.321 178.802C315.297 178.83 301.27 142.35 301.237 119.35L318.683 48.5823C342.598 29.748 420.707 17.6816 455.198 53.9043L504.198 122.759L471.302 114.74Z" fill="#DE5376"/>
</g>
<path d="M422.41 264.165L422.038 265.131L422.03 265.153C405.28 307.884 357.233 329.321 314.169 313.067C272.02 297.159 250.147 250.996 263.919 208.593L263.83 208.559L265.233 204.841L266.63 201.065L266.655 201.074L311.854 81.3202L311.944 81.354C329.623 40.4258 376.544 20.2277 418.692 36.1361C462.095 52.518 484.001 100.984 467.619 144.387L422.41 264.165ZM411.695 122.618C415.968 110.368 409.712 96.8782 397.505 92.2708C385.104 87.5902 371.257 93.8488 366.576 106.25L321.377 226.004C316.696 238.405 322.955 252.252 335.356 256.932C347.563 261.54 361.172 255.547 366.059 243.53L366.285 242.953L411.484 123.2L411.695 122.618Z" stroke="white" stroke-width="8"/>
<mask id="mask3_25_7" style="mask-type:alpha" maskUnits="userSpaceOnUse" x="153" y="183" width="339" height="329">
<rect x="491.944" y="278.02" width="342.305" height="128.921" transform="rotate(136.94 491.944 278.02)" fill="#D9D9D9"/>
</mask>
<g mask="url(#mask3_25_7)">
<mask id="mask4_25_7" style="mask-type:alpha" maskUnits="userSpaceOnUse" x="133" y="192" width="262" height="240">
<rect x="390.11" y="281.147" width="236" height="108" rx="54" transform="rotate(141.713 390.11 281.147)" stroke="#7ECC44" stroke-width="52"/>
</mask>
<g mask="url(#mask4_25_7)">
<path d="M290.788 403.486C274.066 397.196 256.707 381.879 271.359 325.652L370.871 213.66C405.576 227.377 421.916 273.545 398.294 314.582L290.788 403.486Z" fill="#DE5376"/>
<path d="M388.981 191.315C342.113 211.257 331.317 235.458 346.301 267.695L246.49 264.967C231.507 232.73 242.303 208.529 289.17 188.587L388.981 191.315Z" fill="#DE5376"/>
<path d="M267.152 192.622C247.077 233.893 259.632 253.959 299.884 261.559L217.527 325.11C177.275 317.51 164.72 297.444 184.795 256.173L267.152 192.622Z" fill="#DE5376"/>
<path d="M142.38 476.912C170.787 447.804 172.311 426.669 153.344 407.558L229.086 364.44L310.773 305.697C285.602 333.466 286.481 391.441 316.322 382.714L273.902 413.876L142.38 476.912Z" fill="#9466FF"/>
</g>
<path d="M265.824 417.479L265.008 418.114L264.989 418.129C228.607 446.108 176.385 439.706 147.865 403.577C119.951 368.216 125.008 317.384 158.67 288.151L158.611 288.076L161.73 285.613L164.874 283.098L164.89 283.119L265.359 203.809L265.418 203.884C301.668 177.929 352.285 184.812 380.199 220.173C408.944 256.587 402.727 309.408 366.313 338.153L265.824 417.479ZM329.618 290.668C339.594 282.375 341.189 267.591 333.104 257.35C324.892 246.946 309.8 245.17 299.396 253.382L198.927 332.692C188.523 340.905 186.747 355.996 194.96 366.4C203.044 376.642 217.795 378.523 228.177 370.745L228.668 370.368L329.137 291.058L329.618 290.668Z" stroke="white" stroke-width="8"/>
</g>
<path d="M597.55 369.15C581.217 369.15 568.267 364.717 558.7 355.85C549.367 346.75 544.7 332.517 544.7 313.15V197.3V195.2L552.4 155.65H585.3V309.65C585.3 316.65 587.05 321.783 590.55 325.05C594.05 328.317 598.6 329.95 604.2 329.95C607.934 329.95 611.317 329.717 614.35 329.25C617.384 328.783 620.067 328.2 622.4 327.5V365.3C618.9 366.467 615.167 367.4 611.2 368.1C607.467 368.8 602.917 369.15 597.55 369.15ZM518.45 232.3V195.2H622.4V232.3H518.45ZM701.525 366H660.925V195.2H701.525V366ZM655.675 142C655.675 134.533 657.892 128.467 662.325 123.8C666.992 118.9 673.292 116.45 681.225 116.45C688.692 116.45 694.758 118.9 699.425 123.8C704.092 128.467 706.425 134.533 706.425 142C706.425 149.467 704.092 155.533 699.425 160.2C694.758 164.867 688.692 167.2 681.225 167.2C673.292 167.2 666.992 164.867 662.325 160.2C657.892 155.533 655.675 149.467 655.675 142ZM818.157 369.5C801.357 369.5 786.657 365.883 774.057 358.65C761.457 351.183 751.54 340.8 744.307 327.5C737.307 314.2 733.807 298.683 733.807 280.95C733.807 262.983 737.307 247.35 744.307 234.05C751.54 220.517 761.457 210.017 774.057 202.55C786.657 195.083 801.357 191.35 818.157 191.35C835.19 191.35 850.007 195.2 862.607 202.9C875.44 210.367 885.357 220.867 892.357 234.4C899.357 247.7 902.857 263.1 902.857 280.6C902.857 282.7 902.74 284.8 902.507 286.9C902.507 289 902.39 290.867 902.157 292.5H769.507V259.95H872.057L863.657 278.5C863.657 262.4 859.924 249.217 852.457 238.95C844.99 228.683 833.674 223.55 818.507 223.55C804.74 223.55 793.774 227.867 785.607 236.5C777.674 244.9 773.707 256.1 773.707 270.1V288.65C773.707 303.117 777.674 314.667 785.607 323.3C793.774 331.7 804.974 335.9 819.207 335.9C832.04 335.9 841.957 333.217 848.957 327.85C856.19 322.483 862.374 315.833 867.507 307.9L896.557 325.4C888.857 339.867 878.59 350.833 865.757 358.3C852.924 365.767 837.057 369.5 818.157 369.5ZM987.986 370.2C975.386 370.2 963.253 367.4 951.586 361.8C939.92 356.2 929.886 346.75 921.486 333.45L949.136 312.45C956.136 320.85 962.786 326.917 969.086 330.65C975.386 334.383 983.086 336.25 992.186 336.25C998.72 336.25 1003.85 334.617 1007.59 331.35C1011.32 328.083 1013.19 324 1013.19 319.1C1013.19 315.833 1012.25 312.917 1010.39 310.35C1008.52 307.783 1005.02 305.45 999.886 303.35C994.986 301.017 987.87 298.683 978.536 296.35C961.27 291.917 948.086 285.85 938.986 278.15C930.12 270.45 925.686 259.017 925.686 243.85C925.686 234.283 928.136 225.533 933.036 217.6C937.936 209.433 945.053 203.017 954.386 198.35C963.72 193.45 974.686 191 987.286 191C1002.45 191 1015.4 194.033 1026.14 200.1C1036.87 206.167 1045.39 213.4 1051.69 221.8L1023.34 244.2C1019.37 239.767 1014 235.683 1007.24 231.95C1000.7 227.983 992.77 226 983.436 226C977.836 226 972.82 227.4 968.386 230.2C963.953 233 961.736 236.967 961.736 242.1C961.736 247 963.953 251.083 968.386 254.35C972.82 257.617 981.22 260.65 993.586 263.45C1014.35 268.35 1029.17 274.883 1038.04 283.05C1046.9 291.217 1051.34 301.95 1051.34 315.25C1051.34 326.45 1048.42 336.25 1042.59 344.65C1036.75 352.817 1029.05 359.117 1019.49 363.55C1009.92 367.983 999.42 370.2 987.986 370.2Z" fill="#360E38"/>
</g>
<defs>
<clipPath id="clip0_25_7">
<rect width="1225" height="484" fill="white"/>
</clipPath>
</defs>
</svg>
