<svg width="509" height="484" viewBox="0 0 509 484" fill="none" xmlns="http://www.w3.org/2000/svg">
<g clip-path="url(#clip0_26_2)">
<mask id="mask0_26_2" style="mask-type:alpha" maskUnits="userSpaceOnUse" x="23" y="135" width="327" height="297">
<rect x="349.969" y="228.258" width="323.268" height="119.935" transform="rotate(140.939 349.969 228.258)" fill="#D9D9D9"/>
</mask>
<g mask="url(#mask0_26_2)">
<mask id="mask1_26_2" style="mask-type:alpha" maskUnits="userSpaceOnUse" x="88" y="192" width="262" height="240">
<rect x="345.11" y="281.146" width="236" height="108" rx="54" transform="rotate(141.713 345.11 281.146)" stroke="#7ECC44" stroke-width="52"/>
</mask>
<g mask="url(#mask1_26_2)">
<path d="M245.787 403.485C269.41 362.448 261.064 339.368 226.358 325.651L289.697 197.084C324.403 210.801 421.304 236.899 397.682 277.936L245.787 403.485Z" fill="#DE5376"/>
<path d="M343.98 191.314C297.113 211.256 279.718 234.084 294.702 266.321L184.906 317.494C169.923 285.256 108.159 249.407 155.026 229.464L232.668 168.11L343.98 191.314Z" fill="#DE5376"/>
<path d="M65.6889 463.187C104.587 430.115 88.7221 339.098 57.8326 312.584L107.856 325.886L177.728 350.13C208.618 376.644 209.027 403.094 170.129 436.167L65.6889 463.187Z" fill="#9466FF"/>
<path d="M175.403 241.234C193.705 250.81 190.994 280.043 177.173 310.981L154.18 372.098C138.156 360.46 92.4631 346.786 89.231 372.098L67.0597 322.388L175.403 241.234Z" fill="#63C7EB"/>
</g>
<path d="M220.824 417.479L220.008 418.114L219.989 418.129C183.607 446.108 131.385 439.706 102.865 403.577C74.3446 367.447 80.242 315.166 115.903 286.275L115.922 286.26L116.73 285.613L217.22 206.288C253.633 177.543 306.454 183.76 335.199 220.173C363.944 256.587 357.727 309.408 321.313 338.153L220.824 417.479ZM284.618 290.668C294.594 282.375 296.189 267.591 288.104 257.35C279.892 246.946 264.8 245.17 254.396 253.382L153.927 332.692L153.446 333.082C143.47 341.375 141.875 356.159 149.96 366.4C158.044 376.642 172.795 378.523 183.177 370.745L183.668 370.368L284.137 291.058L284.618 290.668Z" stroke="white" stroke-width="8"/>
</g>
<mask id="mask2_26_2" style="mask-type:alpha" maskUnits="userSpaceOnUse" x="218" y="34" width="207" height="281">
<rect x="413.62" y="83.2716" width="236" height="108" rx="54" transform="rotate(110.678 413.62 83.2716)" stroke="#7ECC44" stroke-width="52"/>
</mask>
<g mask="url(#mask2_26_2)">
<path d="M272.89 51.6839C276.966 97.3972 298.069 108.118 336.477 93.8784L328.059 191.067C372.559 191.004 426.654 196.6 416.164 264.442L241.525 361.06L207.045 230.141L272.89 51.6839Z" fill="#9466FF"/>
<path d="M374.867 262.14C378.127 231.205 357.488 186.777 340.095 194.838L334.236 68.871C353.696 40.8432 448.808 37.6969 442.257 83.2169L383.098 317.374L374.867 262.14Z" fill="#63C7EB"/>
<path d="M426.302 114.74C421.744 74.2461 355.742 72.8403 355.768 91.3403L290.321 178.802C270.297 178.83 256.27 142.35 256.237 119.35L273.683 48.5823C297.598 29.748 375.707 17.6816 410.198 53.9043L459.198 122.759L426.302 114.74Z" fill="#DE5376"/>
</g>
<path d="M377.41 264.165L377.038 265.131L377.03 265.153C360.28 307.884 312.233 329.321 269.169 313.067C227.02 297.159 205.147 250.996 218.919 208.593L218.83 208.559L220.233 204.841L221.63 201.065L221.655 201.074L266.854 81.3202L266.944 81.354C284.623 40.4258 331.544 20.2277 373.692 36.1361C417.095 52.518 439.001 100.984 422.619 144.387L377.41 264.165ZM366.695 122.618C370.968 110.368 364.712 96.8782 352.505 92.2708C340.104 87.5902 326.257 93.8488 321.576 106.25L276.377 226.004C271.696 238.405 277.955 252.252 290.356 256.932C302.563 261.54 316.172 255.547 321.059 243.53L321.285 242.953L366.484 123.2L366.695 122.618Z" stroke="white" stroke-width="8"/>
<mask id="mask3_26_2" style="mask-type:alpha" maskUnits="userSpaceOnUse" x="108" y="183" width="339" height="329">
<rect x="446.944" y="278.02" width="342.305" height="128.921" transform="rotate(136.94 446.944 278.02)" fill="#D9D9D9"/>
</mask>
<g mask="url(#mask3_26_2)">
<mask id="mask4_26_2" style="mask-type:alpha" maskUnits="userSpaceOnUse" x="88" y="192" width="262" height="240">
<rect x="345.11" y="281.147" width="236" height="108" rx="54" transform="rotate(141.713 345.11 281.147)" stroke="#7ECC44" stroke-width="52"/>
</mask>
<g mask="url(#mask4_26_2)">
<path d="M245.788 403.486C229.066 397.196 211.707 381.879 226.359 325.652L325.871 213.66C360.576 227.377 376.916 273.545 353.294 314.582L245.788 403.486Z" fill="#DE5376"/>
<path d="M343.981 191.315C297.113 211.257 286.317 235.458 301.301 267.695L201.49 264.967C186.507 232.73 197.303 208.529 244.17 188.587L343.981 191.315Z" fill="#DE5376"/>
<path d="M222.152 192.622C202.077 233.893 214.632 253.959 254.884 261.559L172.527 325.11C132.275 317.51 119.72 297.444 139.795 256.173L222.152 192.622Z" fill="#DE5376"/>
<path d="M97.3797 476.912C125.787 447.804 127.311 426.669 108.344 407.558L184.086 364.44L265.773 305.697C240.602 333.466 241.481 391.441 271.322 382.714L228.902 413.876L97.3797 476.912Z" fill="#9466FF"/>
</g>
<path d="M220.824 417.479L220.008 418.114L219.989 418.129C183.607 446.108 131.385 439.706 102.865 403.577C74.951 368.216 80.0081 317.384 113.67 288.151L113.611 288.076L116.73 285.613L119.874 283.098L119.89 283.119L220.359 203.809L220.418 203.884C256.668 177.929 307.285 184.812 335.199 220.173C363.944 256.587 357.727 309.408 321.313 338.153L220.824 417.479ZM284.618 290.668C294.594 282.375 296.189 267.591 288.104 257.35C279.892 246.946 264.8 245.17 254.396 253.382L153.927 332.692C143.523 340.905 141.747 355.996 149.96 366.4C158.044 376.642 172.795 378.523 183.177 370.745L183.668 370.368L284.137 291.058L284.618 290.668Z" stroke="white" stroke-width="8"/>
</g>
</g>
<defs>
<clipPath id="clip0_26_2">
<rect width="509" height="484" fill="white"/>
</clipPath>
</defs>
</svg>
